<mxfile host="app.diagrams.net" modified="2021-12-12T19:41:00.132Z" agent="5.0 (Windows)" etag="BEjXZzXViGGuQ5YuznGg" version="15.9.4" type="github">
  <diagram id="C5RBs43oDa-KdzZeNtuy" name="Page-1">
    <mxGraphModel dx="790" dy="413" grid="1" gridSize="10" guides="1" tooltips="1" connect="1" arrows="1" fold="1" page="1" pageScale="1" pageWidth="827" pageHeight="1169" math="0" shadow="0">
      <root>
        <mxCell id="WIyWlLk6GJQsqaUBKTNV-0" />
        <mxCell id="WIyWlLk6GJQsqaUBKTNV-1" parent="WIyWlLk6GJQsqaUBKTNV-0" />
        <mxCell id="4CCF4_CBr2mV69rZFA-c-9" value="" style="edgeStyle=orthogonalEdgeStyle;rounded=0;orthogonalLoop=1;jettySize=auto;html=1;fontSize=8;" edge="1" parent="WIyWlLk6GJQsqaUBKTNV-1" source="4CCF4_CBr2mV69rZFA-c-0" target="4CCF4_CBr2mV69rZFA-c-1">
          <mxGeometry relative="1" as="geometry" />
        </mxCell>
        <mxCell id="4CCF4_CBr2mV69rZFA-c-0" value="Начало" style="ellipse;whiteSpace=wrap;html=1;" vertex="1" parent="WIyWlLk6GJQsqaUBKTNV-1">
          <mxGeometry x="440" y="10" width="200" height="100" as="geometry" />
        </mxCell>
        <mxCell id="4CCF4_CBr2mV69rZFA-c-12" value="" style="edgeStyle=orthogonalEdgeStyle;rounded=0;orthogonalLoop=1;jettySize=auto;html=1;fontSize=8;" edge="1" parent="WIyWlLk6GJQsqaUBKTNV-1" source="4CCF4_CBr2mV69rZFA-c-1" target="4CCF4_CBr2mV69rZFA-c-2">
          <mxGeometry relative="1" as="geometry" />
        </mxCell>
        <mxCell id="4CCF4_CBr2mV69rZFA-c-1" value="result = 0;" style="rounded=0;whiteSpace=wrap;html=1;" vertex="1" parent="WIyWlLk6GJQsqaUBKTNV-1">
          <mxGeometry x="440" y="130" width="200" height="100" as="geometry" />
        </mxCell>
        <mxCell id="4CCF4_CBr2mV69rZFA-c-13" style="edgeStyle=orthogonalEdgeStyle;rounded=0;orthogonalLoop=1;jettySize=auto;html=1;entryX=0.5;entryY=0;entryDx=0;entryDy=0;fontSize=8;" edge="1" parent="WIyWlLk6GJQsqaUBKTNV-1" source="4CCF4_CBr2mV69rZFA-c-2" target="4CCF4_CBr2mV69rZFA-c-3">
          <mxGeometry relative="1" as="geometry" />
        </mxCell>
        <mxCell id="4CCF4_CBr2mV69rZFA-c-65" value="Да" style="edgeLabel;html=1;align=center;verticalAlign=middle;resizable=0;points=[];fontSize=14;" vertex="1" connectable="0" parent="4CCF4_CBr2mV69rZFA-c-13">
          <mxGeometry x="-0.3041" y="3" relative="1" as="geometry">
            <mxPoint as="offset" />
          </mxGeometry>
        </mxCell>
        <mxCell id="4CCF4_CBr2mV69rZFA-c-49" style="edgeStyle=orthogonalEdgeStyle;rounded=0;orthogonalLoop=1;jettySize=auto;html=1;entryX=0.5;entryY=0;entryDx=0;entryDy=0;fontSize=12;" edge="1" parent="WIyWlLk6GJQsqaUBKTNV-1" source="4CCF4_CBr2mV69rZFA-c-2" target="4CCF4_CBr2mV69rZFA-c-36">
          <mxGeometry relative="1" as="geometry" />
        </mxCell>
        <mxCell id="4CCF4_CBr2mV69rZFA-c-66" value="&lt;div&gt;Нет&lt;/div&gt;" style="edgeLabel;html=1;align=center;verticalAlign=middle;resizable=0;points=[];fontSize=14;" vertex="1" connectable="0" parent="4CCF4_CBr2mV69rZFA-c-49">
          <mxGeometry x="-0.7053" relative="1" as="geometry">
            <mxPoint as="offset" />
          </mxGeometry>
        </mxCell>
        <mxCell id="4CCF4_CBr2mV69rZFA-c-2" value="dir = 0" style="rhombus;whiteSpace=wrap;html=1;" vertex="1" parent="WIyWlLk6GJQsqaUBKTNV-1">
          <mxGeometry x="440" y="260" width="200" height="100" as="geometry" />
        </mxCell>
        <mxCell id="4CCF4_CBr2mV69rZFA-c-15" value="" style="edgeStyle=orthogonalEdgeStyle;rounded=0;orthogonalLoop=1;jettySize=auto;html=1;fontSize=8;" edge="1" parent="WIyWlLk6GJQsqaUBKTNV-1" source="4CCF4_CBr2mV69rZFA-c-3" target="4CCF4_CBr2mV69rZFA-c-14">
          <mxGeometry relative="1" as="geometry" />
        </mxCell>
        <mxCell id="4CCF4_CBr2mV69rZFA-c-3" value="for j in range(Длина слова)" style="shape=loopLimit;whiteSpace=wrap;html=1;" vertex="1" parent="WIyWlLk6GJQsqaUBKTNV-1">
          <mxGeometry x="230" y="400" width="200" height="100" as="geometry" />
        </mxCell>
        <mxCell id="4CCF4_CBr2mV69rZFA-c-17" value="" style="edgeStyle=orthogonalEdgeStyle;rounded=0;orthogonalLoop=1;jettySize=auto;html=1;fontSize=8;" edge="1" parent="WIyWlLk6GJQsqaUBKTNV-1" source="4CCF4_CBr2mV69rZFA-c-5" target="4CCF4_CBr2mV69rZFA-c-6">
          <mxGeometry relative="1" as="geometry" />
        </mxCell>
        <mxCell id="4CCF4_CBr2mV69rZFA-c-5" value="&lt;div&gt;&lt;font style=&quot;font-size: 8px&quot;&gt;&amp;nbsp;Позиция не действительна И &lt;br&gt;&lt;/font&gt;&lt;/div&gt;&lt;div&gt;&lt;font style=&quot;font-size: 8px&quot;&gt;ячейка свободна ИЛИ &lt;br&gt;&lt;/font&gt;&lt;/div&gt;&lt;div&gt;&lt;font style=&quot;font-size: 8px&quot;&gt;ячейка пересекается с буквой в слове&lt;/font&gt;&lt;/div&gt;" style="rhombus;whiteSpace=wrap;html=1;" vertex="1" parent="WIyWlLk6GJQsqaUBKTNV-1">
          <mxGeometry x="220" y="640" width="220" height="110" as="geometry" />
        </mxCell>
        <mxCell id="4CCF4_CBr2mV69rZFA-c-18" value="" style="edgeStyle=orthogonalEdgeStyle;rounded=0;orthogonalLoop=1;jettySize=auto;html=1;fontSize=8;" edge="1" parent="WIyWlLk6GJQsqaUBKTNV-1" source="4CCF4_CBr2mV69rZFA-c-6" target="4CCF4_CBr2mV69rZFA-c-7">
          <mxGeometry relative="1" as="geometry" />
        </mxCell>
        <mxCell id="4CCF4_CBr2mV69rZFA-c-6" value="&lt;div&gt;&lt;font style=&quot;font-size: 8px&quot;&gt;&amp;nbsp;Позиция действительна по минус горизонтали И &lt;br&gt;&lt;/font&gt;&lt;/div&gt;&lt;div&gt;&lt;font style=&quot;font-size: 8px&quot;&gt;слов по минус горизонтали нет&lt;br&gt;&lt;/font&gt;&lt;/div&gt;" style="rhombus;whiteSpace=wrap;html=1;" vertex="1" parent="WIyWlLk6GJQsqaUBKTNV-1">
          <mxGeometry x="220" y="770" width="220" height="110" as="geometry" />
        </mxCell>
        <mxCell id="4CCF4_CBr2mV69rZFA-c-19" value="" style="edgeStyle=orthogonalEdgeStyle;rounded=0;orthogonalLoop=1;jettySize=auto;html=1;fontSize=8;" edge="1" parent="WIyWlLk6GJQsqaUBKTNV-1" source="4CCF4_CBr2mV69rZFA-c-7" target="4CCF4_CBr2mV69rZFA-c-8">
          <mxGeometry relative="1" as="geometry" />
        </mxCell>
        <mxCell id="4CCF4_CBr2mV69rZFA-c-7" value="&lt;div&gt;&lt;font style=&quot;font-size: 8px&quot;&gt;&amp;nbsp;Позиция действительна по плюс горизонтали И &lt;br&gt;&lt;/font&gt;&lt;/div&gt;&lt;div&gt;&lt;font style=&quot;font-size: 8px&quot;&gt;слов по плюс горизонтали нет&lt;br&gt;&lt;/font&gt;&lt;/div&gt;" style="rhombus;whiteSpace=wrap;html=1;" vertex="1" parent="WIyWlLk6GJQsqaUBKTNV-1">
          <mxGeometry x="220" y="900" width="220" height="110" as="geometry" />
        </mxCell>
        <mxCell id="4CCF4_CBr2mV69rZFA-c-34" style="edgeStyle=orthogonalEdgeStyle;rounded=0;orthogonalLoop=1;jettySize=auto;html=1;entryX=0.5;entryY=1;entryDx=0;entryDy=0;fontSize=12;" edge="1" parent="WIyWlLk6GJQsqaUBKTNV-1" source="4CCF4_CBr2mV69rZFA-c-8" target="4CCF4_CBr2mV69rZFA-c-31">
          <mxGeometry relative="1" as="geometry" />
        </mxCell>
        <mxCell id="4CCF4_CBr2mV69rZFA-c-8" value="Пересечение с буквой" style="rhombus;whiteSpace=wrap;html=1;" vertex="1" parent="WIyWlLk6GJQsqaUBKTNV-1">
          <mxGeometry x="220" y="1030" width="220" height="110" as="geometry" />
        </mxCell>
        <mxCell id="4CCF4_CBr2mV69rZFA-c-16" value="" style="edgeStyle=orthogonalEdgeStyle;rounded=0;orthogonalLoop=1;jettySize=auto;html=1;fontSize=8;" edge="1" parent="WIyWlLk6GJQsqaUBKTNV-1" source="4CCF4_CBr2mV69rZFA-c-14" target="4CCF4_CBr2mV69rZFA-c-5">
          <mxGeometry relative="1" as="geometry" />
        </mxCell>
        <mxCell id="4CCF4_CBr2mV69rZFA-c-14" value="&lt;div&gt;x1 = x,&lt;br&gt;&lt;/div&gt;&lt;div&gt;y1 = y + j;&lt;/div&gt;" style="rounded=0;whiteSpace=wrap;html=1;" vertex="1" parent="WIyWlLk6GJQsqaUBKTNV-1">
          <mxGeometry x="230" y="520" width="200" height="100" as="geometry" />
        </mxCell>
        <mxCell id="4CCF4_CBr2mV69rZFA-c-53" style="edgeStyle=orthogonalEdgeStyle;rounded=0;orthogonalLoop=1;jettySize=auto;html=1;fontSize=14;" edge="1" parent="WIyWlLk6GJQsqaUBKTNV-1" source="4CCF4_CBr2mV69rZFA-c-31">
          <mxGeometry relative="1" as="geometry">
            <mxPoint x="540" y="1320" as="targetPoint" />
            <Array as="points">
              <mxPoint x="330" y="1280" />
              <mxPoint x="540" y="1280" />
            </Array>
          </mxGeometry>
        </mxCell>
        <mxCell id="4CCF4_CBr2mV69rZFA-c-31" value="" style="shape=loopLimit;whiteSpace=wrap;html=1;rotation=-180;" vertex="1" parent="WIyWlLk6GJQsqaUBKTNV-1">
          <mxGeometry x="230" y="1169" width="200" height="100" as="geometry" />
        </mxCell>
        <mxCell id="4CCF4_CBr2mV69rZFA-c-32" value="Конец цикла" style="text;html=1;strokeColor=none;fillColor=none;align=center;verticalAlign=middle;whiteSpace=wrap;rounded=0;fontSize=12;" vertex="1" parent="WIyWlLk6GJQsqaUBKTNV-1">
          <mxGeometry x="290" y="1204" width="80" height="30" as="geometry" />
        </mxCell>
        <mxCell id="4CCF4_CBr2mV69rZFA-c-35" value="" style="edgeStyle=orthogonalEdgeStyle;rounded=0;orthogonalLoop=1;jettySize=auto;html=1;fontSize=8;" edge="1" parent="WIyWlLk6GJQsqaUBKTNV-1" source="4CCF4_CBr2mV69rZFA-c-36" target="4CCF4_CBr2mV69rZFA-c-46">
          <mxGeometry relative="1" as="geometry" />
        </mxCell>
        <mxCell id="4CCF4_CBr2mV69rZFA-c-36" value="for j in range(Длина слова)" style="shape=loopLimit;whiteSpace=wrap;html=1;" vertex="1" parent="WIyWlLk6GJQsqaUBKTNV-1">
          <mxGeometry x="650" y="400" width="200" height="100" as="geometry" />
        </mxCell>
        <mxCell id="4CCF4_CBr2mV69rZFA-c-37" value="" style="edgeStyle=orthogonalEdgeStyle;rounded=0;orthogonalLoop=1;jettySize=auto;html=1;fontSize=8;" edge="1" parent="WIyWlLk6GJQsqaUBKTNV-1" source="4CCF4_CBr2mV69rZFA-c-38" target="4CCF4_CBr2mV69rZFA-c-40">
          <mxGeometry relative="1" as="geometry" />
        </mxCell>
        <mxCell id="4CCF4_CBr2mV69rZFA-c-38" value="&lt;div&gt;&lt;font style=&quot;font-size: 8px&quot;&gt;&amp;nbsp;Позиция не действительна И &lt;br&gt;&lt;/font&gt;&lt;/div&gt;&lt;div&gt;&lt;font style=&quot;font-size: 8px&quot;&gt;ячейка свободна ИЛИ &lt;br&gt;&lt;/font&gt;&lt;/div&gt;&lt;div&gt;&lt;font style=&quot;font-size: 8px&quot;&gt;ячейка пересекается с буквой в слове&lt;/font&gt;&lt;/div&gt;" style="rhombus;whiteSpace=wrap;html=1;" vertex="1" parent="WIyWlLk6GJQsqaUBKTNV-1">
          <mxGeometry x="640" y="640" width="220" height="110" as="geometry" />
        </mxCell>
        <mxCell id="4CCF4_CBr2mV69rZFA-c-39" value="" style="edgeStyle=orthogonalEdgeStyle;rounded=0;orthogonalLoop=1;jettySize=auto;html=1;fontSize=8;" edge="1" parent="WIyWlLk6GJQsqaUBKTNV-1" source="4CCF4_CBr2mV69rZFA-c-40" target="4CCF4_CBr2mV69rZFA-c-42">
          <mxGeometry relative="1" as="geometry" />
        </mxCell>
        <mxCell id="4CCF4_CBr2mV69rZFA-c-40" value="&lt;div&gt;&lt;font style=&quot;font-size: 8px&quot;&gt;&amp;nbsp;Позиция действительна по минус &lt;/font&gt;&lt;font style=&quot;font-size: 8px&quot;&gt;&lt;font style=&quot;font-size: 8px&quot;&gt;вертикали &lt;/font&gt;И &lt;br&gt;&lt;/font&gt;&lt;/div&gt;&lt;div&gt;&lt;font style=&quot;font-size: 8px&quot;&gt;слов по минус вертикали нет&lt;br&gt;&lt;/font&gt;&lt;/div&gt;" style="rhombus;whiteSpace=wrap;html=1;" vertex="1" parent="WIyWlLk6GJQsqaUBKTNV-1">
          <mxGeometry x="640" y="770" width="220" height="110" as="geometry" />
        </mxCell>
        <mxCell id="4CCF4_CBr2mV69rZFA-c-41" value="" style="edgeStyle=orthogonalEdgeStyle;rounded=0;orthogonalLoop=1;jettySize=auto;html=1;fontSize=8;" edge="1" parent="WIyWlLk6GJQsqaUBKTNV-1" source="4CCF4_CBr2mV69rZFA-c-42" target="4CCF4_CBr2mV69rZFA-c-44">
          <mxGeometry relative="1" as="geometry" />
        </mxCell>
        <mxCell id="4CCF4_CBr2mV69rZFA-c-42" value="&lt;div&gt;&lt;font style=&quot;font-size: 8px&quot;&gt;&amp;nbsp;Позиция действительна по плюс горизонтали И &lt;br&gt;&lt;/font&gt;&lt;/div&gt;&lt;div&gt;&lt;font style=&quot;font-size: 8px&quot;&gt;слов по плюс горизонтали нет&lt;br&gt;&lt;/font&gt;&lt;/div&gt;" style="rhombus;whiteSpace=wrap;html=1;" vertex="1" parent="WIyWlLk6GJQsqaUBKTNV-1">
          <mxGeometry x="640" y="900" width="220" height="110" as="geometry" />
        </mxCell>
        <mxCell id="4CCF4_CBr2mV69rZFA-c-43" style="edgeStyle=orthogonalEdgeStyle;rounded=0;orthogonalLoop=1;jettySize=auto;html=1;entryX=0.5;entryY=1;entryDx=0;entryDy=0;fontSize=12;" edge="1" parent="WIyWlLk6GJQsqaUBKTNV-1" source="4CCF4_CBr2mV69rZFA-c-44" target="4CCF4_CBr2mV69rZFA-c-47">
          <mxGeometry relative="1" as="geometry" />
        </mxCell>
        <mxCell id="4CCF4_CBr2mV69rZFA-c-44" value="Пересечение с буквой" style="rhombus;whiteSpace=wrap;html=1;" vertex="1" parent="WIyWlLk6GJQsqaUBKTNV-1">
          <mxGeometry x="640" y="1030" width="220" height="110" as="geometry" />
        </mxCell>
        <mxCell id="4CCF4_CBr2mV69rZFA-c-45" value="" style="edgeStyle=orthogonalEdgeStyle;rounded=0;orthogonalLoop=1;jettySize=auto;html=1;fontSize=8;" edge="1" parent="WIyWlLk6GJQsqaUBKTNV-1" source="4CCF4_CBr2mV69rZFA-c-46" target="4CCF4_CBr2mV69rZFA-c-38">
          <mxGeometry relative="1" as="geometry" />
        </mxCell>
        <mxCell id="4CCF4_CBr2mV69rZFA-c-46" value="&lt;div&gt;x1 = x+1,&lt;br&gt;&lt;/div&gt;&lt;div&gt;y1 = y;&lt;/div&gt;" style="rounded=0;whiteSpace=wrap;html=1;" vertex="1" parent="WIyWlLk6GJQsqaUBKTNV-1">
          <mxGeometry x="650" y="520" width="200" height="100" as="geometry" />
        </mxCell>
        <mxCell id="4CCF4_CBr2mV69rZFA-c-52" style="edgeStyle=orthogonalEdgeStyle;rounded=0;orthogonalLoop=1;jettySize=auto;html=1;entryX=0.5;entryY=0;entryDx=0;entryDy=0;fontSize=14;" edge="1" parent="WIyWlLk6GJQsqaUBKTNV-1" source="4CCF4_CBr2mV69rZFA-c-47" target="4CCF4_CBr2mV69rZFA-c-50">
          <mxGeometry relative="1" as="geometry">
            <Array as="points">
              <mxPoint x="750" y="1280" />
              <mxPoint x="540" y="1280" />
            </Array>
          </mxGeometry>
        </mxCell>
        <mxCell id="4CCF4_CBr2mV69rZFA-c-47" value="" style="shape=loopLimit;whiteSpace=wrap;html=1;rotation=-180;" vertex="1" parent="WIyWlLk6GJQsqaUBKTNV-1">
          <mxGeometry x="650" y="1169" width="200" height="100" as="geometry" />
        </mxCell>
        <mxCell id="4CCF4_CBr2mV69rZFA-c-48" value="Конец цикла" style="text;html=1;strokeColor=none;fillColor=none;align=center;verticalAlign=middle;whiteSpace=wrap;rounded=0;fontSize=12;" vertex="1" parent="WIyWlLk6GJQsqaUBKTNV-1">
          <mxGeometry x="710" y="1204" width="80" height="30" as="geometry" />
        </mxCell>
        <mxCell id="4CCF4_CBr2mV69rZFA-c-55" style="edgeStyle=orthogonalEdgeStyle;rounded=0;orthogonalLoop=1;jettySize=auto;html=1;entryX=0.5;entryY=0;entryDx=0;entryDy=0;fontSize=14;" edge="1" parent="WIyWlLk6GJQsqaUBKTNV-1" source="4CCF4_CBr2mV69rZFA-c-50" target="4CCF4_CBr2mV69rZFA-c-54">
          <mxGeometry relative="1" as="geometry" />
        </mxCell>
        <mxCell id="4CCF4_CBr2mV69rZFA-c-50" value="&lt;div&gt;xStar = x - _dirX[dir], &lt;br&gt;&lt;/div&gt;&lt;div&gt;yStar = y - _dirY[dir];&lt;/div&gt;" style="rounded=0;whiteSpace=wrap;html=1;" vertex="1" parent="WIyWlLk6GJQsqaUBKTNV-1">
          <mxGeometry x="440" y="1320" width="200" height="100" as="geometry" />
        </mxCell>
        <mxCell id="4CCF4_CBr2mV69rZFA-c-57" style="edgeStyle=orthogonalEdgeStyle;rounded=0;orthogonalLoop=1;jettySize=auto;html=1;entryX=0.5;entryY=0;entryDx=0;entryDy=0;fontSize=14;" edge="1" parent="WIyWlLk6GJQsqaUBKTNV-1" source="4CCF4_CBr2mV69rZFA-c-54" target="4CCF4_CBr2mV69rZFA-c-56">
          <mxGeometry relative="1" as="geometry" />
        </mxCell>
        <mxCell id="4CCF4_CBr2mV69rZFA-c-54" value="Позиция валидна и НЕ(ячейка пустая или ячейка занята)" style="rhombus;whiteSpace=wrap;html=1;" vertex="1" parent="WIyWlLk6GJQsqaUBKTNV-1">
          <mxGeometry x="430" y="1450" width="220" height="110" as="geometry" />
        </mxCell>
        <mxCell id="4CCF4_CBr2mV69rZFA-c-59" style="edgeStyle=orthogonalEdgeStyle;rounded=0;orthogonalLoop=1;jettySize=auto;html=1;entryX=0.5;entryY=0;entryDx=0;entryDy=0;fontSize=14;" edge="1" parent="WIyWlLk6GJQsqaUBKTNV-1" source="4CCF4_CBr2mV69rZFA-c-56" target="4CCF4_CBr2mV69rZFA-c-58">
          <mxGeometry relative="1" as="geometry" />
        </mxCell>
        <mxCell id="4CCF4_CBr2mV69rZFA-c-56" value="xStar = x + _dirX[dir] * word.Length;&lt;br&gt;yStar = y + _dirY[dir] * word.Length;" style="rounded=0;whiteSpace=wrap;html=1;" vertex="1" parent="WIyWlLk6GJQsqaUBKTNV-1">
          <mxGeometry x="440" y="1600" width="200" height="100" as="geometry" />
        </mxCell>
        <mxCell id="4CCF4_CBr2mV69rZFA-c-61" value="" style="edgeStyle=orthogonalEdgeStyle;rounded=0;orthogonalLoop=1;jettySize=auto;html=1;fontSize=14;" edge="1" parent="WIyWlLk6GJQsqaUBKTNV-1" source="4CCF4_CBr2mV69rZFA-c-58" target="4CCF4_CBr2mV69rZFA-c-60">
          <mxGeometry relative="1" as="geometry" />
        </mxCell>
        <mxCell id="4CCF4_CBr2mV69rZFA-c-58" value="Позиция валидна и НЕ(ячейка пустая или ячейка занята)" style="rhombus;whiteSpace=wrap;html=1;" vertex="1" parent="WIyWlLk6GJQsqaUBKTNV-1">
          <mxGeometry x="430" y="1730" width="220" height="110" as="geometry" />
        </mxCell>
        <mxCell id="4CCF4_CBr2mV69rZFA-c-60" value="Если result = длине слова, то вывод -1, иначе result" style="rounded=0;whiteSpace=wrap;html=1;" vertex="1" parent="WIyWlLk6GJQsqaUBKTNV-1">
          <mxGeometry x="440" y="1880" width="200" height="100" as="geometry" />
        </mxCell>
        <mxCell id="4CCF4_CBr2mV69rZFA-c-67" value="" style="edgeStyle=orthogonalEdgeStyle;rounded=0;orthogonalLoop=1;jettySize=auto;html=1;fontSize=14;" edge="1" parent="WIyWlLk6GJQsqaUBKTNV-1" source="4CCF4_CBr2mV69rZFA-c-62" target="4CCF4_CBr2mV69rZFA-c-64">
          <mxGeometry relative="1" as="geometry" />
        </mxCell>
        <mxCell id="4CCF4_CBr2mV69rZFA-c-62" value="Начало" style="ellipse;whiteSpace=wrap;html=1;" vertex="1" parent="WIyWlLk6GJQsqaUBKTNV-1">
          <mxGeometry x="1190" y="10" width="200" height="100" as="geometry" />
        </mxCell>
        <mxCell id="4CCF4_CBr2mV69rZFA-c-70" style="edgeStyle=orthogonalEdgeStyle;rounded=0;orthogonalLoop=1;jettySize=auto;html=1;fontSize=14;" edge="1" parent="WIyWlLk6GJQsqaUBKTNV-1" source="4CCF4_CBr2mV69rZFA-c-64" target="4CCF4_CBr2mV69rZFA-c-68">
          <mxGeometry relative="1" as="geometry" />
        </mxCell>
        <mxCell id="4CCF4_CBr2mV69rZFA-c-72" value="Да" style="edgeLabel;html=1;align=center;verticalAlign=middle;resizable=0;points=[];fontSize=14;" vertex="1" connectable="0" parent="4CCF4_CBr2mV69rZFA-c-70">
          <mxGeometry x="-0.4298" y="-2" relative="1" as="geometry">
            <mxPoint y="-1" as="offset" />
          </mxGeometry>
        </mxCell>
        <mxCell id="4CCF4_CBr2mV69rZFA-c-71" style="edgeStyle=orthogonalEdgeStyle;rounded=0;orthogonalLoop=1;jettySize=auto;html=1;entryX=0.5;entryY=0;entryDx=0;entryDy=0;fontSize=14;" edge="1" parent="WIyWlLk6GJQsqaUBKTNV-1" source="4CCF4_CBr2mV69rZFA-c-64" target="4CCF4_CBr2mV69rZFA-c-69">
          <mxGeometry relative="1" as="geometry" />
        </mxCell>
        <mxCell id="4CCF4_CBr2mV69rZFA-c-73" value="Нет" style="edgeLabel;html=1;align=center;verticalAlign=middle;resizable=0;points=[];fontSize=14;" vertex="1" connectable="0" parent="4CCF4_CBr2mV69rZFA-c-71">
          <mxGeometry x="-0.1667" relative="1" as="geometry">
            <mxPoint as="offset" />
          </mxGeometry>
        </mxCell>
        <mxCell id="4CCF4_CBr2mV69rZFA-c-64" value="dir = 0" style="rhombus;whiteSpace=wrap;html=1;" vertex="1" parent="WIyWlLk6GJQsqaUBKTNV-1">
          <mxGeometry x="1190" y="130" width="200" height="100" as="geometry" />
        </mxCell>
        <mxCell id="4CCF4_CBr2mV69rZFA-c-77" style="edgeStyle=orthogonalEdgeStyle;rounded=0;orthogonalLoop=1;jettySize=auto;html=1;entryX=0.5;entryY=0;entryDx=0;entryDy=0;fontSize=14;" edge="1" parent="WIyWlLk6GJQsqaUBKTNV-1" source="4CCF4_CBr2mV69rZFA-c-68" target="4CCF4_CBr2mV69rZFA-c-74">
          <mxGeometry relative="1" as="geometry">
            <Array as="points">
              <mxPoint x="1060" y="370" />
              <mxPoint x="1290" y="370" />
            </Array>
          </mxGeometry>
        </mxCell>
        <mxCell id="4CCF4_CBr2mV69rZFA-c-68" value="mat = _hWords" style="rounded=0;whiteSpace=wrap;html=1;" vertex="1" parent="WIyWlLk6GJQsqaUBKTNV-1">
          <mxGeometry x="960" y="240" width="200" height="100" as="geometry" />
        </mxCell>
        <mxCell id="4CCF4_CBr2mV69rZFA-c-76" style="edgeStyle=orthogonalEdgeStyle;rounded=0;orthogonalLoop=1;jettySize=auto;html=1;fontSize=14;" edge="1" parent="WIyWlLk6GJQsqaUBKTNV-1" source="4CCF4_CBr2mV69rZFA-c-69" target="4CCF4_CBr2mV69rZFA-c-74">
          <mxGeometry relative="1" as="geometry">
            <Array as="points">
              <mxPoint x="1500" y="370" />
              <mxPoint x="1290" y="370" />
            </Array>
          </mxGeometry>
        </mxCell>
        <mxCell id="4CCF4_CBr2mV69rZFA-c-69" value="mat = _vWords" style="rounded=0;whiteSpace=wrap;html=1;" vertex="1" parent="WIyWlLk6GJQsqaUBKTNV-1">
          <mxGeometry x="1400" y="240" width="200" height="100" as="geometry" />
        </mxCell>
        <mxCell id="4CCF4_CBr2mV69rZFA-c-80" style="edgeStyle=orthogonalEdgeStyle;rounded=0;orthogonalLoop=1;jettySize=auto;html=1;entryX=0.5;entryY=0;entryDx=0;entryDy=0;fontSize=14;" edge="1" parent="WIyWlLk6GJQsqaUBKTNV-1" source="4CCF4_CBr2mV69rZFA-c-74" target="4CCF4_CBr2mV69rZFA-c-78">
          <mxGeometry relative="1" as="geometry" />
        </mxCell>
        <mxCell id="4CCF4_CBr2mV69rZFA-c-74" value="for i in range(Длина слова)" style="shape=loopLimit;whiteSpace=wrap;html=1;" vertex="1" parent="WIyWlLk6GJQsqaUBKTNV-1">
          <mxGeometry x="1190" y="390" width="200" height="100" as="geometry" />
        </mxCell>
        <mxCell id="4CCF4_CBr2mV69rZFA-c-82" style="edgeStyle=orthogonalEdgeStyle;rounded=0;orthogonalLoop=1;jettySize=auto;html=1;entryX=0.5;entryY=0;entryDx=0;entryDy=0;fontSize=14;" edge="1" parent="WIyWlLk6GJQsqaUBKTNV-1" source="4CCF4_CBr2mV69rZFA-c-78" target="4CCF4_CBr2mV69rZFA-c-79">
          <mxGeometry relative="1" as="geometry" />
        </mxCell>
        <mxCell id="4CCF4_CBr2mV69rZFA-c-78" value="&lt;div&gt;x1 = x + _dirX[dir] * i, &lt;br&gt;&lt;/div&gt;&lt;div&gt;y1 = y + _dirY[dir] * i;&lt;/div&gt;" style="rounded=0;whiteSpace=wrap;html=1;" vertex="1" parent="WIyWlLk6GJQsqaUBKTNV-1">
          <mxGeometry x="1190" y="520" width="200" height="100" as="geometry" />
        </mxCell>
        <mxCell id="4CCF4_CBr2mV69rZFA-c-85" style="edgeStyle=orthogonalEdgeStyle;rounded=0;orthogonalLoop=1;jettySize=auto;html=1;entryX=0.5;entryY=1;entryDx=0;entryDy=0;fontSize=14;" edge="1" parent="WIyWlLk6GJQsqaUBKTNV-1" source="4CCF4_CBr2mV69rZFA-c-79" target="4CCF4_CBr2mV69rZFA-c-83">
          <mxGeometry relative="1" as="geometry" />
        </mxCell>
        <mxCell id="4CCF4_CBr2mV69rZFA-c-79" value="&lt;div&gt;_board[x1, y1] = word[i];&lt;/div&gt;&lt;div&gt; mat[x1, y1] = value;&lt;/div&gt;" style="rounded=0;whiteSpace=wrap;html=1;" vertex="1" parent="WIyWlLk6GJQsqaUBKTNV-1">
          <mxGeometry x="1190" y="645" width="200" height="100" as="geometry" />
        </mxCell>
        <mxCell id="4CCF4_CBr2mV69rZFA-c-95" style="edgeStyle=orthogonalEdgeStyle;rounded=0;orthogonalLoop=1;jettySize=auto;html=1;entryX=0.5;entryY=0;entryDx=0;entryDy=0;fontSize=14;" edge="1" parent="WIyWlLk6GJQsqaUBKTNV-1" source="4CCF4_CBr2mV69rZFA-c-83" target="4CCF4_CBr2mV69rZFA-c-86">
          <mxGeometry relative="1" as="geometry" />
        </mxCell>
        <mxCell id="4CCF4_CBr2mV69rZFA-c-83" value="" style="shape=loopLimit;whiteSpace=wrap;html=1;rotation=-180;" vertex="1" parent="WIyWlLk6GJQsqaUBKTNV-1">
          <mxGeometry x="1190" y="775" width="200" height="100" as="geometry" />
        </mxCell>
        <mxCell id="4CCF4_CBr2mV69rZFA-c-84" value="Конец цикла" style="text;html=1;strokeColor=none;fillColor=none;align=center;verticalAlign=middle;whiteSpace=wrap;rounded=0;fontSize=12;" vertex="1" parent="WIyWlLk6GJQsqaUBKTNV-1">
          <mxGeometry x="1250" y="810" width="80" height="30" as="geometry" />
        </mxCell>
        <mxCell id="4CCF4_CBr2mV69rZFA-c-96" value="" style="edgeStyle=orthogonalEdgeStyle;rounded=0;orthogonalLoop=1;jettySize=auto;html=1;fontSize=14;" edge="1" parent="WIyWlLk6GJQsqaUBKTNV-1" source="4CCF4_CBr2mV69rZFA-c-86" target="4CCF4_CBr2mV69rZFA-c-87">
          <mxGeometry relative="1" as="geometry" />
        </mxCell>
        <mxCell id="4CCF4_CBr2mV69rZFA-c-86" value="&lt;div&gt;xStar = x - _dirX[dir], &lt;br&gt;&lt;/div&gt;&lt;div&gt;yStar = y - _dirY[dir];&lt;/div&gt;" style="rounded=0;whiteSpace=wrap;html=1;" vertex="1" parent="WIyWlLk6GJQsqaUBKTNV-1">
          <mxGeometry x="1190" y="900" width="200" height="100" as="geometry" />
        </mxCell>
        <mxCell id="4CCF4_CBr2mV69rZFA-c-90" value="" style="edgeStyle=orthogonalEdgeStyle;rounded=0;orthogonalLoop=1;jettySize=auto;html=1;fontSize=14;" edge="1" parent="WIyWlLk6GJQsqaUBKTNV-1" source="4CCF4_CBr2mV69rZFA-c-87" target="4CCF4_CBr2mV69rZFA-c-89">
          <mxGeometry relative="1" as="geometry" />
        </mxCell>
        <mxCell id="4CCF4_CBr2mV69rZFA-c-87" value="&lt;div&gt;xStar = x - _dirX[dir], &lt;br&gt;&lt;/div&gt;&lt;div&gt;yStar = y - _dirY[dir];&lt;/div&gt;" style="rounded=0;whiteSpace=wrap;html=1;" vertex="1" parent="WIyWlLk6GJQsqaUBKTNV-1">
          <mxGeometry x="1190" y="1020" width="200" height="100" as="geometry" />
        </mxCell>
        <mxCell id="4CCF4_CBr2mV69rZFA-c-97" value="" style="edgeStyle=orthogonalEdgeStyle;rounded=0;orthogonalLoop=1;jettySize=auto;html=1;fontSize=14;" edge="1" parent="WIyWlLk6GJQsqaUBKTNV-1" source="4CCF4_CBr2mV69rZFA-c-89" target="4CCF4_CBr2mV69rZFA-c-91">
          <mxGeometry relative="1" as="geometry" />
        </mxCell>
        <mxCell id="4CCF4_CBr2mV69rZFA-c-89" value="ПозицияВалидна" style="rhombus;whiteSpace=wrap;html=1;" vertex="1" parent="WIyWlLk6GJQsqaUBKTNV-1">
          <mxGeometry x="1190" y="1140" width="200" height="100" as="geometry" />
        </mxCell>
        <mxCell id="4CCF4_CBr2mV69rZFA-c-98" value="" style="edgeStyle=orthogonalEdgeStyle;rounded=0;orthogonalLoop=1;jettySize=auto;html=1;fontSize=14;" edge="1" parent="WIyWlLk6GJQsqaUBKTNV-1" source="4CCF4_CBr2mV69rZFA-c-91" target="4CCF4_CBr2mV69rZFA-c-92">
          <mxGeometry relative="1" as="geometry" />
        </mxCell>
        <mxCell id="4CCF4_CBr2mV69rZFA-c-91" value="_board[xStar, yStar] = &#39;*&#39;" style="rounded=0;whiteSpace=wrap;html=1;" vertex="1" parent="WIyWlLk6GJQsqaUBKTNV-1">
          <mxGeometry x="1190" y="1260" width="200" height="100" as="geometry" />
        </mxCell>
        <mxCell id="4CCF4_CBr2mV69rZFA-c-99" value="" style="edgeStyle=orthogonalEdgeStyle;rounded=0;orthogonalLoop=1;jettySize=auto;html=1;fontSize=14;" edge="1" parent="WIyWlLk6GJQsqaUBKTNV-1" source="4CCF4_CBr2mV69rZFA-c-92" target="4CCF4_CBr2mV69rZFA-c-93">
          <mxGeometry relative="1" as="geometry" />
        </mxCell>
        <mxCell id="4CCF4_CBr2mV69rZFA-c-92" value="xStar = x + _dirX[dir] * word.Length;&lt;br&gt;yStar = y + _dirY[dir] * word.Length;" style="rounded=0;whiteSpace=wrap;html=1;" vertex="1" parent="WIyWlLk6GJQsqaUBKTNV-1">
          <mxGeometry x="1190" y="1380" width="200" height="100" as="geometry" />
        </mxCell>
        <mxCell id="4CCF4_CBr2mV69rZFA-c-100" value="" style="edgeStyle=orthogonalEdgeStyle;rounded=0;orthogonalLoop=1;jettySize=auto;html=1;fontSize=14;" edge="1" parent="WIyWlLk6GJQsqaUBKTNV-1" source="4CCF4_CBr2mV69rZFA-c-93" target="4CCF4_CBr2mV69rZFA-c-94">
          <mxGeometry relative="1" as="geometry" />
        </mxCell>
        <mxCell id="4CCF4_CBr2mV69rZFA-c-93" value="ПозицияВалидна" style="rhombus;whiteSpace=wrap;html=1;" vertex="1" parent="WIyWlLk6GJQsqaUBKTNV-1">
          <mxGeometry x="1190" y="1500" width="200" height="100" as="geometry" />
        </mxCell>
        <mxCell id="4CCF4_CBr2mV69rZFA-c-102" style="edgeStyle=orthogonalEdgeStyle;rounded=0;orthogonalLoop=1;jettySize=auto;html=1;entryX=0.5;entryY=0;entryDx=0;entryDy=0;fontSize=14;" edge="1" parent="WIyWlLk6GJQsqaUBKTNV-1" source="4CCF4_CBr2mV69rZFA-c-94" target="4CCF4_CBr2mV69rZFA-c-101">
          <mxGeometry relative="1" as="geometry" />
        </mxCell>
        <mxCell id="4CCF4_CBr2mV69rZFA-c-94" value="_board[xStar, yStar] = &#39;*&#39;;" style="rounded=0;whiteSpace=wrap;html=1;" vertex="1" parent="WIyWlLk6GJQsqaUBKTNV-1">
          <mxGeometry x="1190" y="1620" width="200" height="100" as="geometry" />
        </mxCell>
        <mxCell id="4CCF4_CBr2mV69rZFA-c-101" value="Конец" style="ellipse;whiteSpace=wrap;html=1;" vertex="1" parent="WIyWlLk6GJQsqaUBKTNV-1">
          <mxGeometry x="1190" y="1754" width="200" height="100" as="geometry" />
        </mxCell>
        <mxCell id="4CCF4_CBr2mV69rZFA-c-103" value="Пользователь" style="rounded=0;whiteSpace=wrap;html=1;fontSize=14;" vertex="1" parent="WIyWlLk6GJQsqaUBKTNV-1">
          <mxGeometry x="1030" y="2200" width="170" height="100" as="geometry" />
        </mxCell>
        <mxCell id="4CCF4_CBr2mV69rZFA-c-104" value="Генератор кроссвордов" style="rounded=0;whiteSpace=wrap;html=1;fontSize=14;" vertex="1" parent="WIyWlLk6GJQsqaUBKTNV-1">
          <mxGeometry x="570" y="2100" width="200" height="120" as="geometry" />
        </mxCell>
        <mxCell id="4CCF4_CBr2mV69rZFA-c-105" value="" style="endArrow=classic;html=1;rounded=0;fontSize=14;" edge="1" parent="WIyWlLk6GJQsqaUBKTNV-1">
          <mxGeometry width="50" height="50" relative="1" as="geometry">
            <mxPoint x="420" y="2159.72" as="sourcePoint" />
            <mxPoint x="570" y="2159.72" as="targetPoint" />
          </mxGeometry>
        </mxCell>
        <mxCell id="4CCF4_CBr2mV69rZFA-c-110" value="&lt;font style=&quot;font-size: 10px&quot;&gt;Введённые слова&lt;/font&gt;" style="edgeLabel;html=1;align=center;verticalAlign=bottom;resizable=0;points=[];fontSize=14;labelPosition=center;verticalLabelPosition=top;" vertex="1" connectable="0" parent="4CCF4_CBr2mV69rZFA-c-105">
          <mxGeometry x="-0.2089" relative="1" as="geometry">
            <mxPoint as="offset" />
          </mxGeometry>
        </mxCell>
        <mxCell id="4CCF4_CBr2mV69rZFA-c-107" value="" style="endArrow=classic;html=1;rounded=0;fontSize=14;" edge="1" parent="WIyWlLk6GJQsqaUBKTNV-1">
          <mxGeometry width="50" height="50" relative="1" as="geometry">
            <mxPoint x="680" y="2290" as="sourcePoint" />
            <mxPoint x="680" y="2220" as="targetPoint" />
          </mxGeometry>
        </mxCell>
        <mxCell id="4CCF4_CBr2mV69rZFA-c-112" value="Пользователь" style="edgeLabel;html=1;align=center;verticalAlign=middle;resizable=0;points=[];fontSize=10;" vertex="1" connectable="0" parent="4CCF4_CBr2mV69rZFA-c-107">
          <mxGeometry x="-0.1365" y="-2" relative="1" as="geometry">
            <mxPoint as="offset" />
          </mxGeometry>
        </mxCell>
        <mxCell id="4CCF4_CBr2mV69rZFA-c-109" value="" style="endArrow=classic;html=1;rounded=0;fontSize=14;" edge="1" parent="WIyWlLk6GJQsqaUBKTNV-1">
          <mxGeometry width="50" height="50" relative="1" as="geometry">
            <mxPoint x="680" y="2030" as="sourcePoint" />
            <mxPoint x="680" y="2100" as="targetPoint" />
          </mxGeometry>
        </mxCell>
        <mxCell id="4CCF4_CBr2mV69rZFA-c-111" value="Алгоритмы программы" style="edgeLabel;html=1;align=center;verticalAlign=middle;resizable=0;points=[];fontSize=10;" vertex="1" connectable="0" parent="4CCF4_CBr2mV69rZFA-c-109">
          <mxGeometry x="-0.4032" y="1" relative="1" as="geometry">
            <mxPoint as="offset" />
          </mxGeometry>
        </mxCell>
        <mxCell id="4CCF4_CBr2mV69rZFA-c-113" value="" style="endArrow=classic;html=1;rounded=0;fontSize=14;" edge="1" parent="WIyWlLk6GJQsqaUBKTNV-1">
          <mxGeometry width="50" height="50" relative="1" as="geometry">
            <mxPoint x="770" y="2159.7200000000003" as="sourcePoint" />
            <mxPoint x="870" y="2159.72" as="targetPoint" />
          </mxGeometry>
        </mxCell>
        <mxCell id="4CCF4_CBr2mV69rZFA-c-114" value="Кроссворд" style="edgeLabel;html=1;align=center;verticalAlign=bottom;resizable=0;points=[];fontSize=10;labelPosition=center;verticalLabelPosition=top;" vertex="1" connectable="0" parent="4CCF4_CBr2mV69rZFA-c-113">
          <mxGeometry x="-0.4032" y="1" relative="1" as="geometry">
            <mxPoint x="20" as="offset" />
          </mxGeometry>
        </mxCell>
        <mxCell id="4CCF4_CBr2mV69rZFA-c-115" value="&lt;div&gt;Приложение генерации&lt;/div&gt;&lt;div&gt;кроссворда&lt;br&gt;&lt;/div&gt;" style="rounded=0;whiteSpace=wrap;html=1;fontSize=14;" vertex="1" parent="WIyWlLk6GJQsqaUBKTNV-1">
          <mxGeometry x="1280" y="2200" width="170" height="100" as="geometry" />
        </mxCell>
      </root>
    </mxGraphModel>
  </diagram>
</mxfile>
